{
	"asset":{
		"generator":"Khronos glTF Blender I/O v4.2.69",
		"version":"2.0"
	},
	"extensionsUsed":[
		"KHR_materials_specular"
	],
	"scene":0,
	"scenes":[
		{
			"name":"Scene",
			"nodes":[
				0
			]
		}
	],
	"nodes":[
		{
			"mesh":0,
			"name":"Chair",
			"translation":[
				-0.21368810534477234,
				1.137088418006897,
				-7.304728984832764
			]
		}
	],
	"materials":[
		{
			"doubleSided":true,
			"extensions":{
				"KHR_materials_specular":{
					"specularFactor":0
				}
			},
			"name":"wood_2.001",
			"pbrMetallicRoughness":{
				"baseColorTexture":{
					"index":0
				},
				"metallicFactor":0,
				"roughnessFactor":0
			}
		}
	],
	"meshes":[
		{
			"name":"Cube",
			"primitives":[
				{
					"attributes":{
						"POSITION":0,
						"NORMAL":1,
						"TEXCOORD_0":2
					},
					"indices":3,
					"material":0
				}
			]
		}
	],
	"textures":[
		{
			"sampler":0,
			"source":0
		}
	],
	"images":[
		{
			"mimeType":"image/png",
			"name":"wood_2",
			"uri":"wood_2.png"
		}
	],
	"accessors":[
		{
			"bufferView":0,
			"componentType":5126,
			"count":406,
			"max":[
				1.008577823638916,
				2.279827117919922,
				0.9193602204322815
			],
			"min":[
				-0.999752938747406,
				-1.086279273033142,
				-1.085827112197876
			],
			"type":"VEC3"
		},
		{
			"bufferView":1,
			"componentType":5126,
			"count":406,
			"type":"VEC3"
		},
		{
			"bufferView":2,
			"componentType":5126,
			"count":406,
			"type":"VEC2"
		},
		{
			"bufferView":3,
			"componentType":5123,
			"count":1020,
			"type":"SCALAR"
		}
	],
	"bufferViews":[
		{
			"buffer":0,
			"byteLength":4872,
			"byteOffset":0,
			"target":34962
		},
		{
			"buffer":0,
			"byteLength":4872,
			"byteOffset":4872,
			"target":34962
		},
		{
			"buffer":0,
			"byteLength":3248,
			"byteOffset":9744,
			"target":34962
		},
		{
			"buffer":0,
			"byteLength":2040,
			"byteOffset":12992,
			"target":34963
		}
	],
	"samplers":[
		{
			"magFilter":9729,
			"minFilter":9987
		}
	],
	"buffers":[
		{
			"byteLength":15032,
			"uri":"Chair.bin"
		}
	]
}
