{
	"asset":{
		"generator":"Khronos glTF Blender I/O v4.2.69",
		"version":"2.0"
	},
	"scene":0,
	"scenes":[
		{
			"name":"Scene",
			"nodes":[
				0
			]
		}
	],
	"nodes":[
		{
			"mesh":0,
			"name":"Bed",
			"translation":[
				-0.3371792435646057,
				-0.023512542247772217,
				0.05528482049703598
			]
		}
	],
	"materials":[
		{
			"doubleSided":true,
			"name":"bedMat",
			"pbrMetallicRoughness":{
				"baseColorTexture":{
					"index":0
				},
				"metallicFactor":0,
				"roughnessFactor":0.5
			}
		}
	],
	"meshes":[
		{
			"name":"Cube.001",
			"primitives":[
				{
					"attributes":{
						"POSITION":0,
						"NORMAL":1,
						"TEXCOORD_0":2
					},
					"indices":3,
					"material":0
				}
			]
		}
	],
	"textures":[
		{
			"sampler":0,
			"source":0
		}
	],
	"images":[
		{
			"mimeType":"image/png",
			"name":"bedTextures",
			"uri":"bedTextures.png"
		}
	],
	"accessors":[
		{
			"bufferView":0,
			"componentType":5126,
			"count":803,
			"max":[
				7.106023788452148,
				2.262263298034668,
				5.401011943817139
			],
			"min":[
				0.12053132057189941,
				-1.2229108810424805,
				-1.0091803073883057
			],
			"type":"VEC3"
		},
		{
			"bufferView":1,
			"componentType":5126,
			"count":803,
			"type":"VEC3"
		},
		{
			"bufferView":2,
			"componentType":5126,
			"count":803,
			"type":"VEC2"
		},
		{
			"bufferView":3,
			"componentType":5123,
			"count":1716,
			"type":"SCALAR"
		}
	],
	"bufferViews":[
		{
			"buffer":0,
			"byteLength":9636,
			"byteOffset":0,
			"target":34962
		},
		{
			"buffer":0,
			"byteLength":9636,
			"byteOffset":9636,
			"target":34962
		},
		{
			"buffer":0,
			"byteLength":6424,
			"byteOffset":19272,
			"target":34962
		},
		{
			"buffer":0,
			"byteLength":3432,
			"byteOffset":25696,
			"target":34963
		}
	],
	"samplers":[
		{
			"magFilter":9729,
			"minFilter":9987
		}
	],
	"buffers":[
		{
			"byteLength":29128,
			"uri":"first_bed.bin"
		}
	]
}
